<svg width="32" height="32" viewBox="0 0 32 32" fill="none" xmlns="http://www.w3.org/2000/svg">
<path fill-rule="evenodd" clip-rule="evenodd" d="M16 5C9.92487 5 5 9.92487 5 16C5 22.0751 9.92487 27 16 27C22.0751 27 27 22.0751 27 16C27 9.92487 22.0751 5 16 5ZM3 16C3 8.8203 8.8203 3 16 3C23.1797 3 29 8.8203 29 16C29 23.1797 23.1797 29 16 29C8.8203 29 3 23.1797 3 16Z" fill="#111111"/>
<path fill-rule="evenodd" clip-rule="evenodd" d="M12.0281 11.1183C12.3533 10.9443 12.7478 10.9634 13.0547 11.168L19.0547 15.168C19.3329 15.3534 19.5 15.6656 19.5 16C19.5 16.3344 19.3329 16.6466 19.0547 16.8321L13.0547 20.8321C12.7478 21.0366 12.3533 21.0557 12.0281 20.8817C11.703 20.7077 11.5 20.3688 11.5 20V12C11.5 11.6312 11.703 11.2923 12.0281 11.1183ZM13.5 13.8685V18.1315L16.6972 16L13.5 13.8685Z" fill="#111111"/>
<path fill-rule="evenodd" clip-rule="evenodd" d="M19.5 11C20.0523 11 20.5 11.4477 20.5 12V20C20.5 20.5523 20.0523 21 19.5 21C18.9477 21 18.5 20.5523 18.5 20V12C18.5 11.4477 18.9477 11 19.5 11Z" fill="#111111"/>
</svg>
