<svg width="32" height="32" viewBox="0 0 32 32" fill="none" xmlns="http://www.w3.org/2000/svg">
<path d="M15.047 10.666L6.23971 19.4733C5.40122 20.3118 4.96791 21.4021 4.93978 22.5007C4.90188 23.9806 4.88294 24.7206 4.7706 24.9822C4.65827 25.2439 4.40217 25.5 3.88998 26.0122L3.09786 26.8043C2.51946 27.3827 2.51946 28.3205 3.09786 28.8989C3.67626 29.4773 4.61403 29.4773 5.19243 28.8989L5.98455 28.1068C6.49674 27.5946 6.75284 27.3385 7.01451 27.2261C7.27618 27.1138 8.01614 27.0949 9.49601 27.057C10.5947 27.0288 11.6849 26.5955 12.5234 25.757L15.0943 23.1861M19.2362 19.0443L21.3307 16.9497M19.2362 19.0443L17.1416 16.9497M19.2362 19.0443L15.0943 23.1861M15.0943 23.1861L12.9998 21.0916" stroke="#111111" stroke-width="1.5" stroke-linecap="round" stroke-linejoin="round"/>
<path d="M28.0907 9.90886L26.0003 11.9992C24.8957 13.1038 24.8957 14.8947 26.0003 15.9993L16 5.99907C17.1046 7.10367 18.8955 7.10367 20.0001 5.99907L22.0905 3.90869C23.7474 2.25179 26.4338 2.25179 28.0907 3.90869C29.7476 5.56559 29.7476 8.25196 28.0907 9.90886Z" stroke="#111111" stroke-width="1.5" stroke-linecap="round" stroke-linejoin="round"/>
</svg>
