<svg width="32" height="32" viewBox="0 0 32 32" fill="none" xmlns="http://www.w3.org/2000/svg">
<path fill-rule="evenodd" clip-rule="evenodd" d="M6 5.99934C6.00036 5.44706 6.44837 4.99964 7.00066 5C12.3037 5.00349 17.3886 7.11167 21.1385 10.8615C24.8883 14.6114 26.9965 19.6963 27 24.9993C27.0004 25.5516 26.5529 25.9996 26.0007 26C25.4484 26.0004 25.0004 25.5529 25 25.0007C24.9969 20.2275 23.0994 15.6508 19.7243 12.2757C16.3492 8.90064 11.7725 7.00314 6.99934 7C6.44706 6.99964 5.99964 6.55163 6 5.99934Z" fill="#111111"/>
<path fill-rule="evenodd" clip-rule="evenodd" d="M6 15C6 14.4477 6.44772 14 7 14C8.44454 14 9.87494 14.2845 11.2095 14.8373C12.5441 15.3901 13.7567 16.2004 14.7782 17.2218C15.7996 18.2433 16.6099 19.4559 17.1627 20.7905C17.7155 22.1251 18 23.5555 18 25C18 25.5523 17.5523 26 17 26C16.4477 26 16 25.5523 16 25C16 23.8181 15.7672 22.6478 15.3149 21.5558C14.8626 20.4639 14.1997 19.4718 13.364 18.636C12.5282 17.8003 11.5361 17.1374 10.4442 16.6851C9.35222 16.2328 8.1819 16 7 16C6.44772 16 6 15.5523 6 15Z" fill="#111111"/>
<path d="M7 26.5C7.82843 26.5 8.5 25.8284 8.5 25C8.5 24.1716 7.82843 23.5 7 23.5C6.17157 23.5 5.5 24.1716 5.5 25C5.5 25.8284 6.17157 26.5 7 26.5Z" fill="#111111"/>
</svg>
