<svg viewBox="0 0 32 32" fill="currentColor" width="32" height="32" clip-rule="evenodd" fill-rule="evenodd" xmlns="http://www.w3.org/2000/svg" xmlns:xlink="http://www.w3.org/1999/xlink">
    <path d="M12 10c0-0.5523 0.4477-1 1-1h13c1.3261 0 2.5979 0.5268 3.5355 1.4645C30.4732 11.4021 31 12.6739 31 14v7c0 0.5523-0.4477 1-1 1s-1-0.4477-1-1v-7c0-0.7956-0.3161-1.5587-0.8787-2.1213S26.7956 11 26 11H14v10c0 0.5523-0.4477 1-1 1s-1-0.4477-1-1z" />
    <path d="M2 5c0.5523 0 1 0.4477 1 1v20c0 0.5523-0.4477 1-1 1s-1-0.4477-1-1V6c0-0.5523 0.4477-1 1-1z" />
    <path d="M1 21c0-0.5523 0.4477-1 1-1h28c0.5523 0 1 0.4477 1 1v5c0 0.5523-0.4477 1-1 1s-1-0.4477-1-1v-4H2c-0.5523 0-1-0.4477-1-1z" />
    <path d="M1 10c0-0.5523 0.4477-1 1-1h11c0.5523 0 1 0.4477 1 1 0 0.5523-0.4477 1-1 1H2c-0.5523 0-1-0.4477-1-1z" />
</svg>